<svg xmlns="http://www.w3.org/2000/svg" viewBox="0 0 997 515" role="img" aria-label="World map silhouette">
  <path fill="#ffffff" d="M73 138l33-32 49-11 38 15 29-10 50 31 9 42 30 10 5 45-22 28 25 49-29 50 14 46-58 21-44-14-39 20-54-15-34 31-49-4 24-53-23-34 18-43-21-41 22-41-19-35 31-22-15-29Zm38 72l32 16 36-18-30-31-34 4-4 29Zm115 34l27 26 28-16-9-31-31-8-15 29Zm196-127l38-29 64 6 38-52 50 4 28 48 57 13 34 31 66 3 58 33 61-6 36 31-12 39 37 31-31 47-56-9-49 30-66-3-40 32-57-21-52 18-55-29-49 17-43-19-45 9-32-44 14-46-34-31 23-55-31-45Zm55 81l38 14 30-25-42-22-26 33Zm145-41l43 21 46-20-39-32-50 31Zm184 75l47 16 41-21-47-25-41 30ZM480 300l45-19 49 21 9 60-35 50-58-14-31-47 21-51Zm114 58l52-7 39 29-15 60-46 29-37-46 7-65Zm105 4l52-21 55 17 22 44-36 52-63-7-30-85Zm111 101l58-28 70 10 30 32-37 30-80-1-41-43ZM506 68l33-50 40 8 24 46-55 28-42-32ZM25 452l58-11 54 17-36 37-71-5-5-38Z"/>
</svg>
